<?xml version="1.0" standalone="no"?>
<!DOCTYPE svg PUBLIC "-//W3C//DTD SVG 20010904//EN"
 "http://www.w3.org/TR/2001/REC-SVG-20010904/DTD/svg10.dtd">
<svg version="1.0" xmlns="http://www.w3.org/2000/svg"
 width="400.000000pt" height="400.000000pt" viewBox="0 0 400.000000 400.000000"
 preserveAspectRatio="xMidYMid meet">

<g transform="translate(0.000000,400.000000) scale(0.100000,-0.100000)"
fill="#000000" stroke="none">
<path d="M2835 2508 c-82 -251 -98 -309 -87 -320 9 -9 15 -9 26 2 16 19 108
309 100 321 -8 13 -34 11 -39 -3z m15 -60 c-10 -35 -25 -83 -34 -108 -10 -25
-18 -49 -20 -55 -22 -79 -28 -95 -35 -91 -4 3 -6 19 -3 35 2 17 8 29 12 26 4
-3 8 7 8 21 0 15 3 29 8 33 5 3 10 11 10 16 5 37 39 145 46 145 5 0 6 5 3 10
-7 12 2 30 15 30 5 0 0 -28 -10 -62z"/>
<path d="M2575 2498 c-5 -17 -47 -245 -49 -267 -1 -9 7 -16 18 -16 17 0 23 19
46 140 16 77 26 143 23 148 -7 12 -33 8 -38 -5z m21 -54 c-9 -23 -25 -16 -19
9 10 44 16 53 21 29 2 -13 1 -30 -2 -38z m-12 -61 c-4 -21 -9 -42 -13 -48 -7
-12 -7 -18 -9 -67 -1 -21 -6 -38 -11 -38 -9 0 -8 42 3 95 3 17 8 45 11 63 3
17 10 32 16 32 6 0 7 -15 3 -37z"/>
<path d="M3031 2324 c-44 -96 -81 -179 -81 -184 0 -14 28 -19 39 -7 21 26 161
342 157 354 -14 36 -39 2 -115 -163z m103 147 c-5 -3 -10 -13 -12 -21 -7 -31
-73 -160 -82 -160 -5 0 -7 -6 -4 -13 2 -7 -7 -39 -21 -70 -25 -54 -41 -74 -51
-64 -7 7 18 57 28 57 5 0 7 3 5 8 -9 14 13 53 24 46 8 -5 9 -3 4 5 -6 11 27
94 45 111 3 3 7 14 8 25 7 36 42 96 53 89 6 -4 7 -9 3 -13z"/>
<path d="M2317 2453 c-10 -17 -11 -223 0 -234 20 -20 31 17 34 126 4 96 2 110
-13 113 -9 2 -18 -1 -21 -5z m28 -13 c-4 -6 -6 -43 -6 -83 0 -40 -4 -86 -9
-103 -6 -22 -8 -6 -9 64 -1 82 9 132 25 132 3 0 2 -5 -1 -10z"/>
<path d="M3270 2255 c-104 -174 -121 -215 -88 -215 17 0 238 369 231 386 -13
33 -38 3 -143 -171z m120 135 c-7 -16 -16 -30 -21 -30 -5 0 -8 -3 -7 -7 5 -14
-114 -203 -123 -197 -5 3 -6 -2 -3 -10 3 -8 -4 -24 -15 -35 -12 -12 -19 -21
-16 -21 3 0 1 -9 -5 -20 -11 -20 -30 -27 -30 -12 0 7 155 269 207 350 20 32
29 20 13 -18z"/>
<path d="M2076 2381 c-8 -12 12 -173 23 -184 30 -30 37 49 15 166 -5 26 -27
37 -38 18z m29 -68 c2 -32 7 -68 10 -79 4 -12 2 -25 -4 -28 -11 -7 -12 -1 -16
90 -1 22 -5 46 -9 52 -7 12 2 37 11 29 2 -3 6 -31 8 -64z"/>
<path d="M3580 2254 c-36 -47 -102 -133 -148 -192 -45 -59 -81 -111 -79 -117
2 -5 12 -10 22 -10 24 0 309 370 301 391 -11 28 -32 12 -96 -72z m79 55 c-8
-5 -11 -9 -7 -9 4 0 -16 -30 -44 -67 -28 -38 -56 -66 -62 -65 -6 2 -8 1 -4 -3
4 -4 -8 -26 -25 -49 -101 -135 -119 -156 -127 -151 -6 3 -7 -1 -4 -9 3 -9 1
-16 -5 -16 -6 0 -11 5 -11 10 0 20 282 380 292 374 6 -4 5 -10 -3 -15z"/>
<path d="M1846 2272 c-5 -9 17 -102 28 -121 11 -18 36 -13 36 7 0 38 -31 122
-45 122 -8 0 -16 -4 -19 -8z m42 -58 c15 -51 15 -67 2 -59 -6 4 -8 11 -5 16 4
5 2 9 -3 9 -11 0 -32 76 -24 85 9 8 18 -6 30 -51z"/>
<path d="M1633 2134 c-7 -19 27 -68 51 -72 23 -5 21 29 -5 62 -23 30 -37 33
-46 10z m33 -13 c-3 -5 1 -11 9 -15 15 -6 21 -36 7 -36 -4 0 -16 14 -25 30
-16 27 -17 30 -2 30 9 0 14 -4 11 -9z"/>
<path d="M1455 1960 c-4 -7 -3 -16 3 -22 14 -14 45 -2 40 15 -6 16 -34 21 -43
7z m25 -10 c0 -5 -2 -10 -4 -10 -3 0 -8 5 -11 10 -3 6 -1 10 4 10 6 0 11 -4
11 -10z"/>
<path d="M320 1635 l0 -155 25 0 c23 0 24 4 27 63 l3 62 50 2 50 3 48 -65 c43
-58 51 -65 82 -65 l35 0 -51 65 c-45 57 -48 65 -29 65 63 0 95 106 45 155 -23
24 -29 25 -155 25 l-130 0 0 -155z m230 102 c33 -17 37 -51 8 -71 -16 -12 -46
-16 -105 -16 l-83 0 0 43 c0 24 3 47 7 50 11 12 147 7 173 -6z"/>
<path d="M720 1635 l0 -155 139 0 c109 0 140 3 144 14 11 28 -17 36 -122 36
l-106 0 1 42 1 43 87 3 c77 2 86 5 86 22 0 23 -18 28 -104 28 l-69 0 -1 36 -1
36 100 0 c105 0 132 8 122 34 -5 14 -27 16 -142 16 l-135 0 0 -155z"/>
<path d="M1077 1777 c-3 -7 26 -77 64 -155 66 -137 69 -142 99 -142 29 0 33 6
101 142 38 78 68 147 65 155 -3 7 -14 13 -24 13 -14 0 -33 -31 -78 -125 -32
-68 -62 -125 -65 -125 -3 0 -17 26 -31 58 -73 162 -90 192 -108 192 -10 0 -20
-6 -23 -13z"/>
<path d="M1504 1673 c-31 -65 -65 -135 -75 -155 l-19 -38 30 0 c25 0 32 6 44
35 l15 35 96 0 95 0 17 -35 c13 -27 23 -35 44 -35 l28 0 -43 93 c-98 209 -103
217 -141 217 -34 0 -35 -1 -91 -117z m131 -2 l34 -71 -69 0 c-39 0 -70 2 -70
5 0 11 63 145 67 141 2 -2 19 -36 38 -75z"/>
<path d="M1775 1780 c-15 -23 17 -40 76 -40 l59 0 0 -130 0 -130 30 0 30 0 0
130 0 130 58 0 c64 0 88 10 79 34 -6 14 -29 16 -166 16 -100 0 -162 -4 -166
-10z"/>
<path d="M2187 1783 c-14 -14 -7 -213 8 -243 23 -45 69 -64 150 -64 136 0 167
38 163 202 -3 95 -5 107 -22 110 -29 6 -36 -16 -35 -121 2 -123 -9 -138 -99
-145 -51 -4 -62 -1 -88 21 -28 24 -29 28 -32 136 -4 97 -6 111 -21 111 -10 0
-21 -3 -24 -7z"/>
<path d="M2610 1635 l0 -155 29 0 29 0 -1 63 -2 62 50 3 51 3 47 -66 c43 -59
50 -65 83 -65 l35 0 -45 59 c-51 66 -53 71 -31 71 9 0 27 11 40 25 36 35 35
105 -1 134 -24 19 -40 21 -155 21 l-129 0 0 -155z m230 102 c33 -17 39 -61 11
-77 -12 -6 -56 -10 -103 -8 l-82 3 -1 40 c0 22 1 43 3 48 5 12 145 8 172 -6z"/>
<path d="M3010 1635 l0 -155 139 0 c141 0 165 6 141 35 -10 11 -38 15 -116 15
l-104 0 0 45 0 45 74 0 c77 0 97 10 75 36 -10 12 -29 15 -81 12 l-68 -3 0 37
0 37 108 3 c99 3 107 4 107 23 0 19 -8 20 -137 23 l-138 3 0 -156z"/>
</g>
</svg>
