<?xml version="1.0" standalone="no"?>
<!DOCTYPE svg PUBLIC "-//W3C//DTD SVG 20010904//EN"
 "http://www.w3.org/TR/2001/REC-SVG-20010904/DTD/svg10.dtd">
<svg version="1.0" xmlns="http://www.w3.org/2000/svg"
 width="200.000000pt" height="200.000000pt" viewBox="0 0 200.000000 200.000000"
 preserveAspectRatio="xMidYMid meet">

<g transform="translate(0.000000,200.000000) scale(0.100000,-0.100000)"
fill="#000000" stroke="none">
<path d="M820 1956 c-200 -42 -372 -137 -518 -285 -107 -109 -197 -271 -239
-430 -36 -134 -38 -334 -5 -464 117 -468 523 -777 987 -754 359 18 666 220
827 542 109 217 131 447 68 689 -43 163 -139 325 -263 443 -124 118 -249 190
-412 238 -75 23 -114 28 -235 31 -98 2 -166 -1 -210 -10z m429 -35 c112 -33
188 -68 277 -126 412 -274 549 -806 319 -1242 -116 -219 -303 -381 -532 -459
-132 -45 -224 -58 -363 -51 -525 25 -928 480 -897 1011 22 375 259 701 607
835 129 50 198 61 365 57 116 -3 167 -9 224 -25z"/>
<path d="M934 1925 c-4 -9 -2 -21 4 -27 15 -15 44 -1 40 19 -4 23 -36 29 -44
8z"/>
<path d="M1014 1925 c-4 -9 -2 -21 4 -27 15 -15 44 -1 40 19 -4 23 -36 29 -44
8z"/>
<path d="M854 1915 c-4 -9 -2 -21 4 -27 15 -15 44 -1 40 19 -4 23 -36 29 -44
8z"/>
<path d="M1094 1915 c-4 -9 -2 -21 4 -27 15 -15 44 -1 40 19 -4 23 -36 29 -44
8z"/>
<path d="M781 1906 c-16 -19 -6 -36 20 -36 15 0 20 6 17 22 -4 27 -21 33 -37
14z"/>
<path d="M1174 1905 c-4 -9 -2 -21 4 -27 15 -15 44 -1 40 19 -4 23 -36 29 -44
8z"/>
<path d="M1247 1887 c-8 -20 9 -41 27 -34 23 9 21 47 -3 47 -10 0 -21 -6 -24
-13z"/>
<path d="M700 1871 c0 -27 19 -36 37 -18 18 18 9 37 -18 37 -12 0 -19 -7 -19
-19z"/>
<path d="M631 1856 c-16 -19 -6 -36 20 -36 15 0 20 6 17 22 -4 27 -21 33 -37
14z"/>
<path d="M797 1850 c-559 -141 -829 -756 -559 -1275 38 -73 66 -109 147 -190
105 -105 163 -145 292 -200 210 -91 469 -85 688 14 339 154 552 531 506 893
-41 315 -219 563 -502 697 -126 61 -184 73 -349 77 -119 3 -159 0 -223 -16z
m327 -6 c223 -23 466 -181 599 -390 94 -146 131 -278 130 -464 0 -117 -4 -147
-27 -225 -118 -392 -477 -647 -874 -622 -404 26 -728 320 -793 721 -16 101 -6
270 21 364 95 335 390 585 734 622 70 7 94 7 210 -6z"/>
<path d="M981 1725 l-2 -75 50 0 c56 0 70 17 19 22 -33 3 -33 3 -36 66 -2 41
-7 62 -15 62 -9 0 -14 -23 -16 -75z"/>
<path d="M1126 1723 c-8 -37 -12 -71 -8 -74 4 -3 26 -11 50 -17 33 -8 42 -7
42 3 0 7 -16 16 -36 19 -26 5 -34 12 -32 24 3 12 12 16 31 15 18 -1 27 3 27
13 0 8 -9 14 -20 14 -13 0 -20 7 -20 20 0 17 4 19 28 14 41 -10 44 -10 49 2 2
7 -12 15 -32 18 -20 4 -42 9 -50 12 -9 4 -18 -14 -29 -63z"/>
<path d="M840 1773 c0 -3 5 -35 11 -71 l11 -64 37 6 c20 3 42 6 49 6 6 0 12 5
12 10 0 6 -17 10 -39 10 -35 0 -39 3 -45 31 -3 17 -6 42 -6 55 0 15 -6 24 -15
24 -8 0 -15 -3 -15 -7z"/>
<path d="M699 1729 c-39 -39 -4 -129 50 -129 59 0 84 85 38 128 -29 28 -61 28
-88 1z m72 -20 c28 -28 23 -73 -9 -77 -31 -5 -52 15 -52 47 0 26 16 51 32 51
4 0 17 -9 29 -21z"/>
<path d="M1275 1705 c-32 -31 -33 -74 -2 -103 33 -31 71 -29 86 4 6 15 10 28
9 29 -14 11 -47 23 -51 19 -3 -4 -1 -14 6 -25 13 -22 6 -32 -17 -23 -42 16
-40 70 3 94 14 7 25 5 44 -10 14 -11 28 -16 31 -11 8 13 -42 51 -66 51 -10 0
-30 -11 -43 -25z"/>
<path d="M566 1658 c-50 -71 44 -158 104 -98 24 24 26 40 5 40 -8 0 -15 -6
-15 -14 0 -20 -38 -30 -56 -15 -41 33 -36 89 7 89 11 0 17 5 14 10 -11 17 -43
11 -59 -12z"/>
<path d="M1410 1612 c-19 -31 -36 -59 -38 -63 -4 -9 79 -61 86 -54 4 4 -5 17
-20 29 -16 12 -28 27 -28 33 0 19 20 26 36 12 22 -18 30 -2 9 21 -14 15 -16
23 -8 31 8 8 20 6 42 -10 41 -29 49 -9 8 21 -17 13 -36 27 -42 30 -5 3 -26
-19 -45 -50z"/>
<path d="M912 1589 c-239 -35 -437 -226 -486 -471 -20 -95 -20 -153 -1 -243
59 -282 334 -493 613 -471 82 7 192 40 267 82 119 66 226 209 271 360 28 94
24 239 -10 339 -47 138 -145 261 -262 330 -105 61 -267 92 -392 74z m283 -49
c189 -72 329 -233 370 -426 18 -87 18 -141 0 -229 -65 -309 -373 -515 -675
-451 -153 32 -303 137 -376 263 -102 172 -110 378 -22 562 62 132 211 252 366
297 75 21 262 13 337 -16z"/>
<path d="M913 1550 c-283 -50 -477 -296 -460 -585 18 -308 279 -542 582 -522
278 19 487 224 520 508 22 186 -90 413 -256 520 -103 66 -267 99 -386 79z
m226 -35 c94 -25 162 -65 237 -139 84 -84 127 -164 151 -281 57 -278 -135
-560 -422 -620 -259 -54 -519 97 -606 352 -33 96 -33 250 0 343 59 169 198
300 364 345 68 18 208 18 276 0z"/>
<path d="M892 1492 c-27 -8 -28 -9 -13 -68 10 -41 14 -45 34 -40 12 3 28 6 35
6 6 0 12 5 12 11 0 7 -11 8 -30 4 -34 -8 -41 9 -12 31 16 12 15 13 -6 14 -30
0 -24 24 6 28 12 2 22 8 22 13 0 10 -13 10 -48 1z"/>
<path d="M1052 1446 c-6 -28 -9 -52 -7 -54 1 -2 20 -6 40 -9 28 -4 36 -3 31 5
-4 7 -16 12 -27 12 -10 0 -19 7 -19 15 0 8 7 15 15 15 8 0 15 5 15 10 0 6 -7
10 -16 10 -8 0 -12 5 -9 10 3 6 17 10 31 10 33 0 22 17 -15 22 -28 4 -30 2
-39 -46z"/>
<path d="M1161 1457 c14 -10 14 -17 3 -47 -15 -43 -16 -50 -6 -50 5 0 16 19
25 41 12 30 21 40 32 36 8 -4 15 -3 15 2 0 10 -46 31 -68 31 -15 -1 -16 -2 -1
-13z"/>
<path d="M784 1413 c3 -21 6 -46 6 -55 0 -25 17 -22 23 3 5 18 11 20 33 15 25
-7 26 -6 14 11 -22 28 -62 63 -73 63 -6 0 -7 -16 -3 -37z m36 -14 c0 -5 -4 -9
-10 -9 -5 0 -10 7 -10 16 0 8 5 12 10 9 6 -3 10 -10 10 -16z"/>
<path d="M707 1403 c-3 -5 10 -27 28 -51 42 -54 55 -39 14 16 -32 44 -35 46
-42 35z"/>
<path d="M1273 1350 c-12 -29 -17 -52 -12 -56 10 -6 99 46 99 59 0 11 -13 8
-34 -8 -37 -28 -41 -17 -19 43 3 6 1 12 -4 12 -5 0 -19 -22 -30 -50z"/>
<path d="M646 1351 c-16 -17 -23 -31 -18 -35 6 -4 14 -1 17 5 5 7 19 0 39 -20
42 -41 56 -27 15 15 -19 20 -27 34 -20 38 13 8 15 26 3 26 -5 0 -21 -13 -36
-29z"/>
<path d="M1343 1297 c-43 -33 -53 -47 -30 -47 16 1 79 59 75 70 -2 5 -22 -5
-45 -23z"/>
<path d="M600 1291 c0 -5 10 -16 23 -24 22 -16 22 -16 -15 -16 -54 -1 -55 -16
-3 -47 45 -26 77 -28 36 -2 -30 19 -26 28 14 28 45 0 44 11 -5 44 -43 28 -50
31 -50 17z"/>
<path d="M1368 1253 c-21 -14 -35 -30 -32 -35 3 -5 12 -4 20 3 21 17 29 3 16
-26 -6 -14 -7 -27 -2 -30 5 -3 11 4 15 15 4 12 14 19 27 17 32 -3 45 26 25 57
-21 31 -22 31 -69 -1z m57 -21 c0 -18 -20 -15 -23 4 -3 10 1 15 10 12 7 -3 13
-10 13 -16z"/>
<path d="M765 1187 c-37 -31 -42 -86 -16 -162 12 -32 21 -78 21 -101 0 -39 -3
-44 -37 -61 -50 -24 -63 -60 -40 -108 9 -20 28 -40 43 -45 37 -14 427 -13 458
2 51 23 52 109 2 223 -14 31 -26 59 -26 61 0 2 18 4 39 4 53 0 69 8 86 41 24
45 19 103 -11 138 l-26 31 -233 0 c-228 0 -235 -1 -260 -23z m395 7 c0 -3 -5
-15 -12 -27 -15 -28 -11 -116 7 -167 8 -22 12 -40 9 -40 -3 0 2 -7 10 -16 9
-8 14 -19 11 -24 -3 -5 -1 -10 4 -12 6 -1 12 -14 15 -28 3 -14 7 -35 10 -47 8
-36 -35 -30 -56 7 l-17 30 -181 0 c-99 0 -180 3 -180 8 0 4 4 14 10 22 6 9 5
19 -2 28 -9 10 -8 16 3 23 8 5 9 9 2 9 -13 0 -53 111 -53 147 0 13 5 23 11 23
5 0 7 5 4 11 -9 14 26 46 56 51 36 6 349 8 349 2z m123 -39 l18 -25 -78 0
c-77 1 -78 1 -56 19 12 10 19 21 16 25 -4 3 14 6 38 6 35 -1 48 -6 62 -25z
m15 -65 c-4 -58 -63 -88 -90 -46 -14 20 -8 26 22 26 31 0 39 17 18 38 -9 9 -5
12 20 12 30 0 32 -2 30 -30z m-102 -30 c0 -41 -3 -50 -17 -50 -20 0 -29 20
-29 66 0 29 4 34 23 34 20 0 22 -5 23 -50z m44 30 c0 -5 -7 -10 -15 -10 -8 0
-15 5 -15 10 0 6 7 10 15 10 8 0 15 -4 15 -10z m-175 -267 c-8 -23 -10 -42 -4
-49 5 -6 6 -14 2 -17 -3 -4 -2 -7 4 -7 6 0 13 -9 16 -20 5 -19 0 -20 -164 -20
-106 0 -169 4 -169 10 0 6 -7 10 -15 10 -16 0 -37 34 -42 67 -2 13 5 31 17 43
19 19 32 20 194 20 l174 0 -13 -37z m75 -3 c-9 -6 -11 -10 -3 -10 7 0 10 -7 7
-15 -4 -9 -19 -15 -39 -15 -26 0 -33 4 -30 18 2 9 4 20 4 25 1 4 18 7 39 7 27
0 33 -3 22 -10z"/>
<path d="M531 1158 c-6 -17 -10 -32 -9 -33 2 -1 17 -7 33 -12 17 -6 37 -14 46
-18 12 -5 20 2 28 26 6 18 9 35 6 38 -3 3 -8 -5 -12 -17 -7 -29 -33 -28 -33 1
-1 21 -1 21 -15 3 -19 -25 -37 -12 -25 19 5 14 6 25 1 25 -5 0 -14 -14 -20
-32z"/>
<path d="M1454 1175 c4 -11 -6 -20 -34 -31 -22 -9 -40 -21 -40 -26 0 -6 7 -7
16 -4 40 15 65 17 79 6 18 -15 19 -7 3 37 -7 18 -16 33 -21 33 -5 0 -7 -7 -3
-15z"/>
<path d="M1443 1083 c-39 -5 -57 -25 -49 -57 7 -29 20 -34 69 -28 50 6 48 23
-3 20 -22 -1 -42 1 -46 5 -15 15 7 35 46 41 23 3 38 11 35 16 -3 6 -9 9 -13 8
-4 0 -21 -3 -39 -5z"/>
<path d="M510 1073 c0 -6 23 -15 50 -20 40 -8 50 -7 50 3 0 8 -8 14 -19 14
-10 0 -33 3 -50 6 -18 4 -31 2 -31 -3z"/>
<path d="M507 1013 c-23 -22 12 -73 51 -73 28 0 54 28 50 53 -5 31 -24 31 -23
0 0 -24 -4 -28 -30 -28 -26 0 -30 4 -30 28 1 27 -5 33 -18 20z"/>
<path d="M1487 966 c-6 -15 -15 -18 -47 -13 -22 3 -42 1 -45 -3 -7 -11 20 -20
56 -20 23 0 29 -4 29 -22 0 -16 3 -19 11 -11 6 6 9 28 7 49 -2 30 -5 34 -11
20z"/>
<path d="M565 918 c-2 -7 -5 -22 -7 -32 -5 -32 -28 -31 -28 1 0 20 -3 24 -9
14 -13 -20 3 -56 25 -56 13 0 20 9 24 30 6 37 31 40 41 5 l7 -25 1 26 c2 39
-43 70 -54 37z"/>
<path d="M1384 889 c-6 -10 0 -12 58 -28 23 -6 40 -6 44 0 6 10 0 12 -58 28
-23 6 -40 6 -44 0z"/>
<path d="M997 606 c-4 -9 -13 -16 -22 -16 -8 0 -15 -4 -15 -10 0 -5 5 -10 11
-10 7 0 9 -10 7 -24 -4 -21 -3 -23 13 -13 13 8 22 7 35 -4 16 -13 17 -12 11 5
-5 12 -1 26 9 37 16 18 16 19 -4 19 -12 0 -25 7 -30 16 -8 15 -10 15 -15 0z"/>
<path d="M460 1490 c0 -15 5 -20 18 -18 9 2 17 10 17 18 0 8 -8 16 -17 18 -13
2 -18 -3 -18 -18z"/>
<path d="M1557 1473 c-14 -13 -6 -33 13 -33 13 0 20 7 20 20 0 19 -20 27 -33
13z"/>
<path d="M326 1413 c-4 -4 3 -15 16 -24 19 -15 21 -20 10 -43 -10 -22 -15 -25
-31 -16 -24 12 -41 13 -41 1 0 -16 119 -81 126 -69 6 10 -15 33 -38 40 -10 4
10 58 22 58 3 0 15 -7 26 -15 24 -18 34 -19 34 -1 0 8 -25 28 -55 45 -61 34
-59 34 -69 24z"/>
<path d="M1650 1339 c-67 -39 -66 -37 -54 -48 12 -13 132 51 126 67 -5 17 -10
16 -72 -19z"/>
<path d="M1668 1243 c-27 -8 -48 -20 -48 -28 0 -10 7 -11 35 -2 49 15 54 2 17
-36 -33 -34 -43 -63 -18 -54 7 3 39 11 70 18 32 8 56 19 56 26 0 15 -5 16 -48
4 -40 -12 -41 -3 -2 34 56 53 32 67 -62 38z"/>
<path d="M251 1226 c-7 -8 -11 -30 -9 -48 4 -48 38 -50 73 -4 15 20 31 33 36
30 13 -8 11 -48 -3 -62 -6 -6 -9 -14 -5 -18 19 -19 49 49 36 84 -13 34 -56 30
-77 -8 -9 -16 -23 -30 -29 -30 -15 0 -17 36 -3 45 12 8 13 25 1 25 -5 0 -14
-6 -20 -14z"/>
<path d="M1688 1083 c-36 -4 -38 -6 -38 -39 0 -50 40 -88 83 -80 53 10 80 60
61 110 -6 16 -23 17 -106 9z m89 -38 c12 -34 -40 -65 -81 -49 -19 7 -21 50 -3
57 28 12 78 7 84 -8z"/>
<path d="M268 1053 c-88 -23 -76 -41 60 -94 17 -6 22 -5 22 6 0 8 -7 15 -15
15 -24 0 -20 57 5 65 25 8 26 25 3 24 -10 -1 -44 -8 -75 -16z m32 -38 c0 -16
-9 -19 -34 -9 -20 8 -11 24 15 24 10 0 19 -7 19 -15z"/>
<path d="M1660 909 c0 -16 8 -19 48 -19 26 0 57 -3 70 -6 16 -5 22 -2 22 9 0
11 -14 18 -47 22 -27 3 -58 7 -70 9 -17 2 -23 -2 -23 -15z"/>
<path d="M301 886 c-6 -7 -21 -11 -34 -9 -35 7 -50 -18 -42 -67 l7 -41 46 6
c97 13 95 11 89 58 -7 54 -42 82 -66 53z m39 -35 c16 -31 12 -41 -15 -41 -20
0 -25 5 -25 23 0 40 22 50 40 18z m-60 -27 c0 -27 -24 -33 -34 -8 -7 19 12 47
25 38 5 -3 9 -16 9 -30z"/>
<path d="M1647 848 c-2 -7 3 -18 11 -24 20 -15 7 -52 -20 -56 -12 -2 -23 -9
-26 -16 -3 -10 14 -12 74 -10 44 2 79 8 81 14 2 6 -23 32 -56 57 -38 30 -61
43 -64 35z m59 -76 c-22 -5 -30 3 -21 18 5 8 11 7 22 -2 15 -12 14 -13 -1 -16z"/>
<path d="M330 694 c-59 -55 -58 -77 4 -68 91 12 106 15 106 26 0 6 -9 8 -21 5
-26 -7 -50 36 -31 55 7 7 12 16 12 20 0 18 -24 5 -70 -38z m40 -29 c0 -9 -9
-15 -21 -15 -18 0 -19 2 -9 15 7 8 16 15 21 15 5 0 9 -7 9 -15z"/>
<path d="M1586 701 c-3 -4 10 -17 29 -27 19 -10 35 -22 35 -26 0 -5 -25 -8
-55 -8 -30 0 -55 -4 -55 -10 0 -16 119 -90 126 -78 7 10 -32 47 -49 48 -5 0
-5 5 -2 10 3 6 23 7 44 4 26 -4 41 -2 49 9 11 13 4 21 -46 51 -64 39 -68 40
-76 27z"/>
<path d="M401 566 c-37 -19 -59 -36 -53 -40 6 -4 29 3 52 14 22 11 40 18 40
15 0 -3 -10 -24 -22 -45 -13 -21 -20 -41 -17 -45 4 -3 23 4 43 16 20 12 39 19
43 16 3 -3 -5 -22 -17 -41 -12 -20 -18 -41 -15 -47 4 -6 24 18 47 55 21 36 37
70 33 76 -3 5 -21 0 -41 -12 -44 -26 -52 -18 -25 25 18 30 19 48 2 47 -3 -1
-35 -16 -70 -34z"/>
<path d="M1516 582 c-3 -6 -3 -17 0 -26 8 -22 -14 -47 -39 -44 -45 7 -23 -19
39 -46 82 -36 95 -25 54 43 -15 25 -32 54 -37 65 -6 11 -13 14 -17 8z m33
-101 c-16 -5 -33 15 -24 30 6 9 12 7 22 -7 9 -13 10 -20 2 -23z"/>
<path d="M603 394 c-8 -21 13 -42 28 -27 13 13 5 43 -11 43 -6 0 -13 -7 -17
-16z"/>
<path d="M1357 393 c-14 -13 -6 -33 13 -33 13 0 20 7 20 20 0 19 -20 27 -33
13z"/>
<path d="M774 355 c-11 -8 -14 -14 -6 -15 9 0 9 -8 -3 -36 -17 -41 -19 -54 -7
-54 11 0 51 109 43 115 -5 2 -17 -2 -27 -10z"/>
<path d="M1182 358 c-19 -19 -14 -29 8 -16 31 20 36 0 10 -47 -13 -24 -21 -47
-18 -50 9 -9 78 6 78 17 0 6 -13 7 -31 3 -29 -7 -30 -6 -20 13 6 12 16 24 21
27 16 10 12 52 -6 59 -22 8 -28 8 -42 -6z"/>
<path d="M886 328 c-3 -7 -6 -22 -9 -33 -3 -11 -8 -28 -12 -37 -4 -11 1 -22
19 -33 34 -22 70 -5 63 31 -2 14 0 27 4 30 13 8 11 21 -7 38 -19 19 -53 21
-58 4z m47 -23 c1 -5 -6 -11 -15 -13 -11 -2 -18 3 -18 13 0 17 30 18 33 0z
m-8 -55 c0 -22 -29 -18 -33 3 -3 14 1 18 15 15 10 -2 18 -10 18 -18z"/>
<path d="M1043 334 c-24 -10 -13 -24 12 -18 19 5 25 2 25 -10 0 -9 -4 -16 -10
-16 -5 0 -10 -4 -10 -10 0 -5 7 -10 16 -10 9 0 14 -7 12 -17 -3 -13 -12 -17
-31 -16 -15 1 -27 -2 -27 -8 0 -14 70 -11 75 4 3 6 2 32 -3 57 -7 45 -25 58
-59 44z"/>
<path d="M1322 1848 c4 -30 43 -33 43 -3 0 13 -8 21 -23 23 -20 3 -23 0 -20
-20z"/>
<path d="M1394 1825 c-4 -9 -2 -21 4 -27 15 -15 44 -1 40 19 -4 23 -36 29 -44
8z"/>
<path d="M554 1815 c-4 -9 -2 -21 4 -27 15 -15 44 -1 40 19 -4 23 -36 29 -44
8z"/>
<path d="M1464 1785 c-4 -9 -2 -21 4 -27 15 -15 44 -1 40 19 -4 23 -36 29 -44
8z"/>
<path d="M483 1774 c-3 -8 -1 -20 5 -26 16 -16 42 -2 42 22 0 24 -38 28 -47 4z"/>
<path d="M1537 1753 c-10 -9 -9 -41 2 -47 4 -3 16 1 27 8 15 12 16 16 5 30
-15 17 -24 20 -34 9z"/>
<path d="M427 1743 c-15 -14 -7 -43 12 -43 26 0 36 17 21 35 -14 16 -23 19
-33 8z"/>
<path d="M1597 1703 c-12 -12 -7 -41 7 -46 22 -9 41 19 26 38 -14 16 -23 19
-33 8z"/>
<path d="M360 1671 c0 -27 19 -36 37 -18 18 18 9 37 -18 37 -12 0 -19 -7 -19
-19z"/>
<path d="M1644 1635 c-4 -9 -2 -21 4 -27 15 -15 44 -1 40 19 -4 23 -36 29 -44
8z"/>
<path d="M304 1625 c-4 -9 -2 -21 4 -27 15 -15 44 -1 40 19 -4 23 -36 29 -44
8z"/>
<path d="M1698 1578 c-8 -21 2 -38 22 -38 19 0 30 17 23 38 -3 6 -13 12 -23
12 -10 0 -20 -6 -22 -12z"/>
<path d="M254 1566 c-8 -21 13 -46 32 -39 20 8 13 47 -9 51 -9 2 -20 -4 -23
-12z"/>
<path d="M1744 1516 c-8 -21 3 -36 27 -36 15 0 20 6 17 22 -4 27 -35 37 -44
14z"/>
<path d="M210 1491 c0 -26 17 -36 35 -21 18 15 8 40 -16 40 -12 0 -19 -7 -19
-19z"/>
<path d="M1784 1446 c-8 -21 3 -36 27 -36 15 0 20 6 17 22 -4 27 -35 37 -44
14z"/>
<path d="M167 1426 c-9 -22 19 -42 37 -26 19 15 10 40 -14 40 -10 0 -20 -6
-23 -14z"/>
<path d="M1827 1383 c-15 -14 -7 -43 12 -43 24 0 33 13 25 34 -6 16 -25 21
-37 9z"/>
<path d="M134 1355 c-4 -9 -2 -21 4 -27 15 -15 44 -1 40 19 -4 23 -36 29 -44
8z"/>
<path d="M1850 1291 c0 -26 17 -36 35 -21 18 15 8 40 -16 40 -12 0 -19 -7 -19
-19z"/>
<path d="M112 1268 c2 -13 10 -23 18 -23 8 0 16 10 18 23 3 17 -2 22 -18 22
-16 0 -21 -5 -18 -22z"/>
<path d="M1877 1233 c-15 -14 -7 -43 12 -43 24 0 33 13 25 34 -6 16 -25 21
-37 9z"/>
<path d="M94 1206 c-9 -24 3 -47 21 -40 18 7 16 45 -2 52 -7 2 -16 -3 -19 -12z"/>
<path d="M1886 1145 c-8 -22 1 -35 25 -35 15 0 20 6 17 22 -4 27 -33 36 -42
13z"/>
<path d="M74 1126 c-8 -21 3 -36 27 -36 15 0 20 6 17 22 -4 27 -35 37 -44 14z"/>
<path d="M1894 1065 c-4 -9 -2 -21 4 -27 15 -15 44 -1 40 19 -4 23 -36 29 -44
8z"/>
<path d="M64 1039 c-3 -6 1 -18 9 -27 13 -12 19 -13 31 -3 8 7 12 19 9 27 -6
17 -39 19 -49 3z"/>
<path d="M1894 985 c-4 -9 -2 -21 4 -27 15 -15 44 -1 40 19 -4 23 -36 29 -44
8z"/>
<path d="M77 963 c-15 -14 -7 -43 12 -43 24 0 33 13 25 34 -6 16 -25 21 -37 9z"/>
<path d="M1892 898 c4 -27 33 -36 42 -13 8 22 -1 35 -25 35 -15 0 -20 -6 -17
-22z"/>
<path d="M74 869 c-8 -14 21 -43 35 -35 6 4 11 16 11 27 0 21 -34 27 -46 8z"/>
<path d="M1874 829 c-8 -14 21 -43 35 -35 6 4 11 16 11 27 0 21 -34 27 -46 8z"/>
<path d="M100 795 c-15 -18 -5 -35 21 -35 12 0 19 7 19 19 0 24 -25 34 -40 16z"/>
<path d="M1864 756 c-9 -24 3 -47 21 -40 18 7 16 45 -2 52 -7 2 -16 -3 -19
-12z"/>
<path d="M118 718 c-8 -21 2 -38 24 -38 14 0 19 6 16 22 -3 25 -33 36 -40 16z"/>
<path d="M1834 675 c-4 -9 -2 -21 4 -27 15 -15 44 -1 40 19 -4 23 -36 29 -44
8z"/>
<path d="M150 644 c-10 -11 -10 -17 0 -28 15 -19 40 -10 40 14 0 24 -25 33
-40 14z"/>
<path d="M1807 613 c-12 -12 -7 -41 7 -46 22 -9 41 19 26 38 -14 16 -23 19
-33 8z"/>
<path d="M180 561 c0 -26 17 -36 35 -21 18 15 8 40 -16 40 -12 0 -19 -7 -19
-19z"/>
<path d="M1764 536 c-8 -21 3 -36 27 -36 15 0 20 6 17 22 -4 27 -35 37 -44 14z"/>
<path d="M220 491 c0 -27 19 -36 37 -18 18 18 9 37 -18 37 -12 0 -19 -7 -19
-19z"/>
<path d="M1720 455 c0 -18 5 -25 19 -25 20 0 31 17 24 38 -3 6 -13 12 -24 12
-14 0 -19 -7 -19 -25z"/>
<path d="M266 441 c-10 -16 6 -42 23 -39 9 2 17 13 19 26 3 16 -2 22 -17 22
-11 0 -22 -4 -25 -9z"/>
<path d="M1677 413 c-15 -14 -7 -43 12 -43 24 0 33 13 25 34 -6 16 -25 21 -37
9z"/>
<path d="M318 378 c-8 -21 2 -38 22 -38 19 0 30 17 23 38 -3 6 -13 12 -23 12
-10 0 -20 -6 -22 -12z"/>
<path d="M1614 345 c-4 -9 -2 -21 4 -27 15 -15 44 -1 40 19 -4 23 -36 29 -44
8z"/>
<path d="M380 324 c-10 -11 -10 -17 0 -28 15 -19 40 -10 40 14 0 24 -25 33
-40 14z"/>
<path d="M1556 295 c-8 -22 1 -35 25 -35 15 0 20 6 17 22 -4 27 -33 36 -42 13z"/>
<path d="M439 274 c-10 -12 -9 -18 3 -31 19 -18 38 -10 38 17 0 24 -25 33 -41
14z"/>
<path d="M1494 245 c-4 -9 -2 -21 4 -27 15 -15 44 -1 40 19 -4 23 -36 29 -44
8z"/>
<path d="M504 225 c-4 -9 -2 -21 4 -27 15 -15 44 -1 40 19 -4 23 -36 29 -44 8z"/>
<path d="M1424 205 c-4 -9 -2 -21 4 -27 15 -15 44 -1 40 19 -4 23 -36 29 -44
8z"/>
<path d="M574 185 c-4 -9 -2 -21 4 -27 15 -15 44 -1 40 19 -4 23 -36 29 -44 8z"/>
<path d="M1352 158 c2 -15 10 -23 23 -23 30 0 27 39 -3 43 -20 3 -23 0 -20
-20z"/>
<path d="M644 156 c-8 -21 3 -36 27 -36 15 0 20 6 17 22 -4 27 -35 37 -44 14z"/>
<path d="M1277 136 c-9 -22 19 -42 37 -26 19 15 10 40 -14 40 -10 0 -20 -6
-23 -14z"/>
<path d="M720 121 c0 -26 17 -36 35 -21 18 15 8 40 -16 40 -12 0 -19 -7 -19
-19z"/>
<path d="M1204 115 c-4 -9 -2 -21 4 -27 15 -15 44 -1 40 19 -4 23 -36 29 -44
8z"/>
<path d="M793 104 c-3 -8 -1 -20 5 -26 16 -16 42 -2 42 22 0 24 -38 28 -47 4z"/>
<path d="M1133 113 c-15 -5 -17 -39 -4 -47 14 -9 41 4 41 19 0 17 -22 33 -37
28z"/>
<path d="M874 95 c-4 -9 -2 -21 4 -27 15 -15 44 -1 40 19 -4 23 -36 29 -44 8z"/>
<path d="M963 103 c-15 -5 -17 -39 -4 -47 14 -9 41 4 41 19 0 17 -22 33 -37
28z"/>
<path d="M1040 95 c-11 -13 -11 -19 3 -33 20 -19 41 -5 35 24 -4 24 -22 28
-38 9z"/>
</g>
</svg>
