<?xml version="1.0" standalone="no"?>
<!DOCTYPE svg PUBLIC "-//W3C//DTD SVG 20010904//EN"
 "http://www.w3.org/TR/2001/REC-SVG-20010904/DTD/svg10.dtd">
<svg version="1.0" xmlns="http://www.w3.org/2000/svg"
 width="474.000000pt" height="359.000000pt" viewBox="0 0 474.000000 359.000000"
 preserveAspectRatio="xMidYMid meet">

<g transform="translate(0.000000,359.000000) scale(0.100000,-0.100000)"
fill="#000000" stroke="none">
<path d="M0 1795 l0 -1795 2370 0 2370 0 0 1795 0 1795 -2370 0 -2370 0 0
-1795z m4351 834 c56 -40 73 -102 44 -163 -20 -42 -63 -66 -118 -66 -101 0
-156 110 -99 198 34 53 121 68 173 31z m-2436 -18 c30 -7 30 -8 33 -79 2 -60
0 -72 -13 -72 -8 0 -15 4 -15 8 0 5 -21 19 -47 32 -35 17 -65 24 -115 24 -59
1 -70 -2 -92 -24 -28 -28 -53 -107 -43 -134 7 -16 30 -18 310 -15 166 1 316
-1 332 -6 86 -23 217 -120 251 -188 18 -33 29 -29 38 14 10 52 61 106 134 140
57 28 81 33 164 37 84 4 174 -5 240 -24 17 -5 37 -50 187 -418 l89 -220 17 40
c9 21 57 140 107 264 49 124 100 239 113 255 31 41 107 81 183 96 75 14 214 7
264 -14 l34 -14 -2 -67 c-1 -37 -4 -70 -7 -73 -3 -3 -20 5 -38 18 -47 33 -139
68 -180 69 -110 0 -195 -86 -173 -177 11 -46 33 -62 183 -137 219 -108 265
-157 265 -282 -1 -153 -92 -242 -281 -275 -87 -15 -189 -1 -270 36 l-53 24 0
85 c0 48 3 86 6 86 3 0 32 -20 64 -45 72 -57 143 -85 216 -85 76 0 127 17 161
52 24 25 28 38 28 85 0 52 -2 57 -41 92 -25 22 -95 61 -173 95 -105 47 -139
67 -172 103 -22 24 -42 43 -43 41 -2 -4 -102 -248 -126 -308 -48 -123 -194
-467 -203 -478 -11 -15 -137 -17 -137 -2 0 5 29 67 64 137 35 71 73 151 85
179 l22 50 -131 315 c-72 172 -141 329 -153 346 -55 81 -218 85 -287 6 -37
-42 -42 -115 -10 -156 11 -14 87 -58 172 -100 105 -52 166 -89 195 -118 127
-126 71 -343 -106 -410 -105 -39 -301 -36 -383 7 -25 13 -27 18 -30 94 -2 58
0 80 9 80 7 0 36 -18 65 -40 29 -22 77 -48 107 -56 65 -20 161 -15 209 10 42
22 72 71 72 118 0 68 -68 122 -250 199 -30 12 -79 38 -107 56 l-53 33 0 -58
c0 -75 -33 -194 -73 -261 -18 -29 -57 -76 -87 -104 -132 -121 -300 -147 -459
-69 -259 127 -336 513 -151 757 l49 65 -124 0 -125 0 -2 -412 -3 -413 -70 0
-70 0 -2 410 -3 410 -52 5 -53 5 -3 48 -3 47 60 0 c58 0 61 1 61 25 0 74 71
183 144 222 56 29 188 36 281 14z m-1350 -13 c3 -13 4 -282 3 -598 l-3 -575
-74 -3 c-53 -2 -77 1 -83 10 -9 15 -11 1172 -1 1182 3 3 39 6 79 6 68 0 74 -2
79 -22z m655 -270 c55 -23 95 -60 121 -110 18 -35 19 -63 19 -418 l0 -380 -70
0 -70 0 0 350 c0 383 0 383 -58 432 -17 14 -51 31 -77 38 -41 11 -54 11 -101
-4 -59 -19 -117 -63 -140 -107 -11 -23 -14 -91 -14 -369 l0 -340 -70 0 -70 0
0 460 0 460 70 0 70 0 0 -47 0 -47 28 26 c86 82 245 106 362 56z"/>
<path d="M4219 2591 c-42 -42 -41 -99 2 -135 55 -46 127 -27 149 40 14 43 7
66 -31 99 -41 34 -83 33 -120 -4z m105 -7 c19 -18 21 -45 5 -61 -8 -8 -8 -17
0 -31 15 -28 14 -32 -9 -32 -13 0 -24 10 -30 26 -6 14 -14 23 -20 19 -5 -3 -6
-13 -3 -21 6 -17 -15 -36 -29 -28 -10 6 -11 128 -1 137 12 13 72 7 87 -9z"/>
<path d="M4260 2550 c0 -5 6 -10 14 -10 8 0 18 5 21 10 3 6 -3 10 -14 10 -12
0 -21 -4 -21 -10z"/>
<path d="M2089 2236 c-190 -68 -273 -350 -170 -573 87 -185 275 -235 406 -108
193 188 131 600 -102 679 -56 19 -86 19 -134 2z"/>
</g>
</svg>
